<?xml version="1.0" standalone="no"?>
<!DOCTYPE svg PUBLIC "-//W3C//DTD SVG 20010904//EN"
 "http://www.w3.org/TR/2001/REC-SVG-20010904/DTD/svg10.dtd">
<svg version="1.0" xmlns="http://www.w3.org/2000/svg"
 width="453.000000pt" height="528.000000pt" viewBox="0 0 453.000000 528.000000"
 preserveAspectRatio="xMidYMid meet">

<g transform="translate(0.000000,528.000000) scale(0.100000,-0.100000)"
fill="#000000" stroke="none">
<path d="M1050 5259 c-361 -46 -649 -208 -820 -460 -154 -225 -221 -550 -175
-836 38 -235 144 -381 345 -477 59 -28 74 -31 165 -31 106 0 155 16 199 64 24
27 35 26 130 -5 50 -17 92 -39 115 -60 35 -32 36 -34 39 -122 l4 -89 -81 -6
c-293 -23 -546 -236 -623 -525 -28 -106 -28 -260 0 -362 31 -117 61 -187 98
-236 l35 -45 -44 -49 c-76 -85 -87 -181 -36 -321 45 -124 33 -188 -41 -219
-61 -25 -138 47 -112 105 16 35 35 32 27 -4 -8 -36 20 -56 57 -42 33 12 48 33
55 74 14 89 -98 168 -194 136 -54 -17 -137 -100 -163 -162 -29 -67 -32 -179
-6 -257 68 -205 212 -351 412 -420 88 -31 208 -25 202 9 -3 13 -17 16 -78 17
-259 2 -510 260 -510 524 0 124 80 237 174 247 73 9 144 -48 118 -93 -10 -17
-12 -16 -22 13 -16 45 -58 46 -94 2 -31 -36 -34 -80 -8 -128 49 -92 176 -90
232 2 28 45 25 109 -10 215 -16 50 -30 111 -30 134 1 61 30 119 84 163 25 20
46 43 46 49 0 7 -14 25 -31 42 -104 98 -166 382 -124 568 31 141 118 283 230
376 101 83 274 149 393 150 41 0 43 -1 40 -27 -2 -23 -7 -28 -28 -25 -22 2
-32 -8 -75 -74 -65 -101 -68 -108 -46 -136 18 -22 18 -24 -1 -73 -20 -51 -50
-186 -42 -194 11 -12 44 37 53 80 6 27 22 77 36 111 26 63 31 88 18 88 -5 0
-14 4 -21 9 -10 6 -4 23 28 74 39 62 43 65 65 55 23 -10 24 -16 27 -121 3
-109 12 -135 34 -99 9 13 9 88 3 278 -13 349 -14 352 -225 420 -66 22 -140 54
-189 85 -55 33 -93 50 -120 52 -59 3 -51 -20 15 -46 43 -18 124 -65 159 -94
11 -8 -36 -43 -77 -57 -64 -22 -126 -20 -205 9 -190 67 -299 188 -347 386 -27
111 -36 272 -21 381 22 167 85 359 125 380 108 58 613 -90 773 -227 l40 -34 7
-97 c9 -123 48 -275 98 -386 21 -49 44 -113 51 -144 12 -59 13 -55 -50 -219
-20 -52 -28 -277 -18 -498 7 -164 8 -168 26 -151 17 15 19 32 19 140 l0 122
36 23 c21 12 67 34 103 49 60 24 66 30 69 58 3 33 -9 26 169 93 54 21 58 21
68 4 35 -59 27 -57 197 -49 l157 7 6 28 c6 28 9 29 68 29 34 0 79 -3 99 -6 35
-6 37 -9 40 -46 3 -39 4 -39 68 -61 85 -29 153 -69 216 -129 28 -26 55 -48 60
-48 5 0 20 9 34 19 24 19 24 19 70 -11 25 -17 56 -41 70 -54 l25 -22 65 39
c35 22 69 47 73 56 17 29 -1 115 -33 161 -16 23 -30 47 -30 51 0 15 58 24 108
16 63 -9 130 -37 206 -85 37 -24 75 -40 92 -40 l29 1 -40 35 c-60 52 -204 121
-269 129 -61 8 -66 13 -37 39 41 38 78 32 206 -32 144 -72 169 -78 223 -57 68
27 90 101 53 180 -49 108 -196 161 -249 89 l-18 -25 -14 26 c-14 26 -13 29 13
51 81 69 232 -7 304 -153 35 -71 38 -83 37 -160 0 -71 2 -83 15 -81 45 9 36
162 -15 266 -33 67 -103 140 -159 167 -43 20 -129 31 -168 21 -64 -16 -97 -93
-61 -144 29 -42 131 -75 160 -51 18 15 1 39 -27 39 -11 0 -19 7 -19 15 0 23
62 19 100 -7 52 -36 75 -73 75 -125 0 -93 -66 -95 -236 -9 -82 41 -122 56
-152 56 -50 0 -98 -27 -123 -69 -29 -50 -47 -40 -68 37 -28 104 -83 247 -142
365 -56 114 -162 282 -208 331 -15 16 -25 35 -22 43 4 8 9 32 12 54 6 35 4 40
-22 55 -29 16 -29 18 -26 89 3 42 -1 89 -8 111 -12 34 -11 38 11 55 19 14 21
20 11 32 -7 8 -23 18 -36 21 -21 5 -23 10 -18 55 4 48 4 50 -37 78 -22 15 -80
51 -127 78 -105 60 -144 95 -144 127 0 30 -23 52 -117 112 -216 139 -539 203
-833 165z m420 -55 c166 -31 340 -103 452 -186 31 -24 56 -44 54 -45 -1 -1
-22 5 -46 14 -34 11 -67 14 -135 10 -188 -12 -342 -63 -485 -158 -106 -71
-169 -140 -213 -231 -18 -37 -36 -67 -40 -67 -5 -1 -27 12 -50 28 -148 101
-353 165 -619 192 -65 7 -118 16 -118 20 0 27 150 181 230 236 112 76 297 153
441 182 158 33 374 35 529 5z m547 -321 c54 -37 132 -85 173 -107 41 -23 76
-49 78 -58 2 -9 -9 -35 -23 -58 -14 -22 -33 -69 -42 -104 -32 -122 19 -234
114 -250 41 -7 41 -8 32 -39 -15 -55 -10 -74 33 -124 132 -153 272 -437 338
-689 20 -72 43 -136 61 -163 47 -73 48 -120 1 -173 -25 -29 -51 -21 -128 37
-78 58 -94 64 -114 40 -18 -22 -27 -19 -83 30 -56 49 -140 97 -204 115 -40 12
-42 15 -45 54 -4 50 -14 54 -161 55 -106 1 -108 1 -117 -24 -11 -30 -27 -34
-162 -37 l-107 -3 -15 33 c-12 25 -22 32 -43 32 -29 0 -248 -75 -270 -93 -7
-5 -13 -22 -13 -37 0 -18 -6 -29 -18 -32 -16 -5 -20 4 -29 63 -6 38 -26 100
-47 142 -42 87 -42 89 -18 124 23 36 23 171 0 228 -9 22 -33 79 -52 127 -57
135 -78 251 -74 388 4 88 10 128 27 172 96 247 381 415 708 417 l103 1 97 -67z
m-1443 -193 c167 -34 307 -89 416 -163 52 -35 63 -48 51 -60 -5 -5 -37 10 -71
33 -91 62 -208 114 -350 155 -69 20 -136 41 -150 45 -46 15 6 10 104 -10z
m1725 -171 c12 -35 15 -108 5 -133 -10 -25 -32 -19 -49 14 -22 42 -19 65 10
78 30 14 32 26 5 45 -20 14 -17 27 6 27 6 0 17 -14 23 -31z m-1095 -1087 c32
-83 34 -140 5 -176 -48 -60 -65 -21 -55 126 6 91 10 118 21 118 2 0 15 -30 29
-68z"/>
<path d="M1556 5143 c-13 -13 -4 -32 36 -83 41 -52 42 -52 87 -46 44 6 65 21
54 39 -3 5 -21 7 -40 4 -31 -5 -39 -2 -69 31 -19 20 -34 40 -34 43 0 10 -27
19 -34 12z"/>
<path d="M1396 5132 c-3 -6 1 -27 10 -47 8 -20 13 -39 10 -42 -3 -3 -37 2 -76
12 -66 16 -100 15 -100 -3 0 -12 110 -142 121 -142 22 0 19 32 -5 61 -15 17
-25 33 -23 35 1 2 30 -3 62 -11 109 -26 115 -18 62 79 -32 59 -50 76 -61 58z"/>
<path d="M1091 4966 c-18 -22 -2 -65 40 -107 42 -42 86 -52 109 -24 17 20 3
36 -25 29 -32 -8 -85 48 -85 88 0 30 -20 37 -39 14z"/>
<path d="M1375 4562 c-16 -11 -38 -28 -47 -38 -46 -52 -66 -171 -30 -181 10
-2 28 -32 45 -80 21 -54 42 -89 76 -124 44 -46 50 -49 98 -49 94 0 159 72 148
163 -8 65 -48 181 -79 228 -54 80 -152 118 -211 81z m127 -61 l33 -29 -60 -7
c-33 -4 -77 -14 -99 -21 -21 -8 -40 -14 -42 -14 -2 0 1 12 7 28 29 77 101 96
161 43z m67 -90 c7 -5 23 -46 36 -92 26 -102 20 -140 -28 -169 -43 -27 -80
-25 -116 6 -41 34 -94 144 -95 197 -1 39 1 42 34 54 41 14 149 17 169 4z"/>
<path d="M1409 4362 c-36 -30 -12 -52 55 -52 59 0 90 17 84 46 -5 29 -105 33
-139 6z"/>
<path d="M683 4171 c-130 -61 -149 -304 -32 -420 68 -67 263 -140 338 -126 47
9 94 38 111 69 44 82 -23 239 -161 377 -110 110 -177 137 -256 100z m107 -41
c12 -7 10 -13 -13 -34 -30 -28 -30 -27 -21 -50 9 -23 33 -20 77 11 l38 26 31
-31 31 -31 -31 -26 c-35 -29 -39 -42 -19 -69 12 -16 15 -15 55 6 l43 23 19
-25 c71 -90 90 -191 44 -237 -23 -23 -31 -25 -97 -21 -58 3 -88 11 -154 42
-78 37 -160 104 -137 113 54 19 54 66 0 61 l-31 -3 -3 60 c-6 115 42 195 117
195 20 0 43 -4 51 -10z"/>
<path d="M680 4021 c-16 -30 4 -73 32 -69 29 4 34 32 14 63 -20 30 -32 31 -46
6z"/>
<path d="M766 3904 c-8 -21 19 -64 40 -64 21 0 29 27 16 56 -13 27 -47 32 -56
8z"/>
<path d="M987 3813 c-11 -10 -8 -61 4 -69 19 -11 42 22 35 50 -6 25 -25 34
-39 19z"/>
<path d="M750 3795 c-15 -18 -6 -45 13 -45 20 0 40 27 33 45 -7 19 -30 19 -46
0z"/>
<path d="M3500 3224 c-127 -17 -363 -80 -482 -128 -177 -71 -256 -120 -460
-282 -166 -133 -261 -189 -383 -225 -126 -37 -219 -49 -396 -49 -170 0 -176
-4 -107 -65 l41 -38 136 6 c145 6 238 22 366 64 158 51 339 159 485 288 80 71
203 156 286 198 81 41 247 95 362 119 114 22 314 30 425 15 33 -4 57 -3 57 2
0 5 -19 30 -42 55 -42 45 -45 46 -113 51 -38 2 -117 -2 -175 -11z"/>
<path d="M1715 3115 c-157 -30 -340 -107 -484 -202 -82 -55 -301 -259 -301
-281 0 -14 49 -72 61 -72 5 0 46 39 91 86 151 157 308 258 504 323 280 92 609
78 855 -39 l62 -29 38 32 c20 18 38 36 38 40 2 17 -171 88 -286 119 -110 29
-131 32 -313 34 -135 2 -217 -1 -265 -11z"/>
<path d="M3475 2995 c-205 -28 -434 -105 -572 -191 -40 -25 -112 -78 -160
-118 -161 -133 -237 -187 -338 -237 -142 -70 -263 -97 -517 -115 -49 -3 -88
-9 -88 -12 0 -4 18 -26 40 -49 36 -39 44 -43 87 -43 118 0 303 35 410 79 161
64 297 149 478 296 169 138 228 172 385 224 106 36 268 66 410 76 72 5 134 2
254 -14 87 -12 163 -24 167 -27 4 -2 10 0 13 4 3 5 -17 34 -44 64 -46 52 -54
57 -113 67 -82 14 -297 12 -412 -4z"/>
<path d="M3417 2779 c-143 -22 -298 -73 -392 -130 -31 -19 -98 -69 -148 -112
-369 -315 -622 -419 -1017 -419 -175 0 -274 13 -424 58 -209 61 -374 153 -513
287 -34 32 -66 56 -72 53 -5 -4 -24 -31 -41 -61 l-31 -55 26 -34 c32 -41 138
-129 215 -178 196 -125 461 -207 730 -227 302 -22 575 39 868 194 99 53 213
134 342 245 112 95 241 162 395 206 93 26 113 28 290 28 184 0 194 -1 309 -32
177 -48 358 -140 491 -247 27 -22 56 -45 64 -50 21 -12 9 3 -169 220 -180 219
-184 222 -376 254 -157 27 -368 27 -547 0z"/>
<path d="M3654 2426 c-160 -37 -233 -125 -222 -270 11 -135 80 -204 226 -226
90 -14 232 0 296 30 70 34 136 119 121 158 -4 12 -24 14 -100 10 -95 -4 -95
-4 -129 -41 -31 -34 -38 -37 -91 -37 -49 0 -60 4 -85 28 -50 50 -50 162 0 207
25 23 101 31 139 15 17 -7 39 -28 51 -47 l20 -34 93 6 c50 4 96 11 101 16 15
14 -41 112 -79 138 -72 49 -235 71 -341 47z"/>
<path d="M3097 2362 c-15 -15 -27 -35 -27 -43 0 -8 14 -55 31 -105 81 -237 89
-493 22 -724 -29 -100 -110 -278 -132 -290 -9 -4 -138 -10 -287 -11 -228 -3
-274 -2 -292 11 -12 8 -118 89 -237 179 l-215 164 -52 -41 c-29 -22 -120 -98
-203 -168 -82 -69 -163 -137 -180 -149 -29 -22 -41 -23 -296 -30 l-266 -7 -26
33 c-36 49 -93 166 -122 253 -48 142 -58 210 -58 391 0 149 3 182 26 269 l25
98 -36 40 c-46 51 -53 43 -87 -92 -89 -356 -23 -741 181 -1047 187 -281 514
-502 829 -559 200 -37 381 -35 563 6 399 90 754 391 917 779 73 174 99 329 92
552 -4 131 -10 183 -30 259 -40 151 -84 260 -106 260 -4 0 -19 -13 -34 -28z
m-103 -1281 c10 -15 -47 -82 -161 -191 -80 -77 -137 -121 -214 -166 -91 -54
-249 -124 -279 -124 -13 0 -60 75 -60 97 0 23 109 355 122 370 7 9 68 13 217
16 113 1 243 3 288 5 45 1 84 -2 87 -7z m-1422 -111 c16 -41 47 -123 69 -181
l41 -106 -21 -42 c-12 -23 -29 -45 -38 -48 -35 -14 -248 81 -382 171 -91 61
-281 239 -281 264 0 15 67 19 345 18 l239 -1 28 -75z m694 -335 c34 -45 26
-54 -58 -72 -133 -28 -381 -27 -505 4 -29 7 -29 32 -2 66 l20 27 192 3 c106 1
222 3 259 5 66 2 67 1 94 -33z"/>
<path d="M4187 2093 c-4 -3 -7 -34 -7 -68 0 -83 8 -89 105 -80 l75 7 0 58 c0
90 0 90 -89 90 -43 0 -81 -3 -84 -7z"/>
<path d="M3588 1763 l-88 -4 0 -227 c0 -125 4 -233 9 -240 5 -9 30 -12 87 -10
l79 3 5 123 c3 67 9 123 14 125 5 1 52 -53 104 -120 l93 -123 105 0 104 0 0
228 c0 125 -4 233 -9 240 -5 9 -31 12 -92 10 l-84 -3 4 -122 c3 -104 1 -123
-11 -123 -9 0 -50 50 -93 110 -74 106 -108 142 -130 138 -5 -1 -49 -4 -97 -5z"/>
<path d="M4237 1444 c-12 -13 -8 -131 6 -142 7 -7 40 -8 87 -4 l75 7 0 70 0
70 -80 3 c-45 1 -84 0 -88 -4z"/>
<path d="M3587 1123 c-3 -5 -2 -115 1 -245 l5 -238 137 0 c75 0 185 3 244 7
l107 6 -3 61 -3 61 -142 0 c-78 0 -144 2 -146 5 -3 3 -9 83 -13 178 l-7 172
-88 0 c-48 0 -90 -3 -92 -7z"/>
<path d="M4177 803 c-15 -4 -17 -14 -15 -76 l3 -72 65 -3 c109 -5 111 -4 108
81 l-3 72 -70 2 c-38 0 -78 -1 -88 -4z"/>
<path d="M932 163 l3 -128 31 -3 c33 -3 44 13 44 66 0 20 5 22 49 22 43 0 53
4 75 31 33 39 33 69 0 108 -25 30 -28 31 -115 31 l-90 0 3 -127z m132 64 c21
-15 13 -44 -15 -52 -26 -8 -39 2 -39 29 0 38 21 47 54 23z"/>
<path d="M1260 173 c-24 -65 -45 -124 -48 -131 -3 -8 8 -12 36 -12 32 0 42 4
47 20 9 29 89 29 107 0 9 -14 24 -20 50 -20 21 0 38 2 38 4 0 4 -66 189 -81
229 -10 24 -16 27 -59 27 l-47 0 -43 -117z m106 2 c20 -48 18 -55 -16 -55 -16
0 -30 3 -30 6 0 12 23 84 27 84 2 0 11 -16 19 -35z"/>
<path d="M1590 160 l0 -130 104 0 c102 0 104 0 108 25 3 13 3 27 0 30 -3 3
-34 5 -69 5 l-63 0 0 100 0 100 -40 0 -40 0 0 -130z"/>
<path d="M1910 161 l0 -131 105 0 105 0 0 30 0 30 -65 0 -64 0 -3 98 -3 97
-37 3 -38 3 0 -130z"/>
<path d="M2284 254 c-8 -20 -30 -78 -49 -130 l-34 -94 34 0 c22 0 43 8 55 20
24 24 87 21 106 -5 10 -13 84 -23 84 -11 0 4 -71 204 -85 239 -5 12 -19 17
-52 17 -41 0 -45 -2 -59 -36z m75 -81 c15 -53 15 -53 -20 -53 -24 0 -29 4 -25
18 3 9 8 29 12 45 9 38 21 34 33 -10z"/>
<path d="M2584 277 c-2 -7 -3 -65 -2 -128 l3 -114 33 -3 c32 -3 32 -3 32 42 0
82 7 83 72 11 47 -51 66 -65 89 -65 l29 0 0 130 0 130 -35 0 -35 0 0 -62 0
-63 -63 68 c-48 51 -70 67 -91 67 -14 0 -29 -6 -32 -13z"/>
<path d="M3414 276 c-52 -23 -74 -61 -74 -126 0 -95 51 -137 155 -128 43 4 62
11 85 33 56 54 47 170 -16 207 -43 25 -112 31 -150 14z m106 -66 c29 -29 27
-84 -5 -115 -28 -29 -42 -31 -73 -9 -18 12 -22 25 -22 64 0 55 18 80 56 80 13
0 33 -9 44 -20z"/>
<path d="M2962 179 c5 -91 8 -103 30 -126 45 -44 158 -43 204 2 22 22 24 32
24 125 l0 100 -34 0 -33 0 -5 -85 c-6 -94 -17 -115 -59 -115 -39 0 -49 24 -49
119 l0 81 -41 0 -42 0 5 -101z"/>
<path d="M3700 250 c0 -28 2 -30 40 -30 l39 0 3 -97 3 -98 37 -3 37 -3 3 98 3
98 43 3 c39 3 42 5 42 33 l0 29 -125 0 -125 0 0 -30z"/>
<path d="M4092 267 c-40 -23 -56 -58 -57 -119 0 -72 24 -107 86 -126 63 -18
116 -7 157 34 33 33 34 36 30 99 -3 55 -8 70 -31 92 -23 23 -37 28 -94 30 -43
2 -76 -1 -91 -10z m116 -53 c17 -12 22 -25 22 -61 0 -77 -54 -109 -101 -62
-18 18 -20 30 -16 67 7 67 47 90 95 56z"/>
</g>
</svg>
